ply
format ascii 1.0
element vertex 13
property float32 x
property float32 y
property float32 z
element face 18
property list uint8 int32 vertex_indices
end_header
0.2 0 0.1
0.5 0.1 0
0.8 0.2 0
1.7 0.5 0.2
2.2 0.4 0
0.7 0.6 0.3
0.9 1 0.2
2 0.8 0.3
0.3 1.4 0.3
0.6 1.3 0.3
1.5 1.7 0.5
0.4 1.8 0.5
1 2 0.8
3 8 0 11
3 2 1 8
3 0 4 3
3 4 7 3
3 10 7 4
3 0 5 12
3 7 0 3
3 10 12 7
3 1 0 8
3 11 0 12
3 11 12 10
3 8 11 10
3 12 5 7
3 5 0 7
3 8 10 4
3 2 8 4
3 0 1 4
3 1 2 4
